<?xml version="1.0" encoding="utf-8"?>
<!-- Generator: Adobe Illustrator 28.3.0, SVG Export Plug-In . SVG Version: 6.00 Build 0)  -->
<svg version="1.1" id="Layer_1" xmlns="http://www.w3.org/2000/svg" xmlns:xlink="http://www.w3.org/1999/xlink" x="0px" y="0px"
	 viewBox="0 0 810.8 685.9" style="enable-background:new 0 0 810.8 685.9;" xml:space="preserve">
<style type="text/css">
	.st0{fill:#E0E0E0;}
	.st1{fill:#FFFFFF;}
	.st2{fill:#E4E4E4;}
	.st3{fill:#2F2E41;}
	.st4{fill:#FF0069;}
	.st5{fill:#6C63FF;}
	.st6{fill:#9E616A;}
	.st7{fill:#FFB6B6;}
	.st8{fill:#3F3D56;}
</style>
<path class="st0" d="M522.2,412.4H303.6c-12.2,0-22.1-9.9-22.1-22.1V101c0-12.2,9.9-22.1,22.1-22.1h218.5c12.2,0,22.1,9.9,22.1,22.1
	v289.4C544.3,402.5,534.4,412.4,522.2,412.4z"/>
<path class="st1" d="M506.8,394H319c-10.8,0-19.6-8.8-19.6-19.6V116.9c0-10.8,8.8-19.6,19.6-19.6h187.8c10.8,0,19.6,8.8,19.6,19.6
	v257.5C526.4,385.2,517.6,394,506.8,394z"/>
<path class="st2" d="M488.1,146.2H337.7c-2.7,0-4.9-2.2-4.9-4.9s2.2-4.9,4.9-4.9l0,0H488c2.7,0,4.9,2.2,4.9,4.9
	C493,144,490.8,146.2,488.1,146.2L488.1,146.2z"/>
<path class="st2" d="M488.1,165.6H337.7c-2.7,0-4.9-2.2-4.9-4.9s2.2-4.9,4.9-4.9H488c2.7,0,4.9,2.2,4.9,4.9S490.8,165.6,488.1,165.6
	z"/>
<path class="st2" d="M402.9,185h-65.2c-2.7,0-4.9-2.2-4.9-4.9s2.2-4.9,4.9-4.9h65.2c2.7,0,4.9,2.2,4.9,4.9S405.6,185,402.9,185z"/>
<path class="st2" d="M488.1,225.6H337.7c-2.7,0-4.9-2.2-4.9-4.9s2.2-4.9,4.9-4.9l0,0H488c2.7,0,4.9,2.2,4.9,4.9
	C493,223.4,490.8,225.6,488.1,225.6L488.1,225.6z"/>
<path class="st2" d="M488.1,244.9H337.7c-2.7,0-4.9-2.2-4.9-4.9s2.2-4.9,4.9-4.9H488c2.7,0,4.9,2.2,4.9,4.9S490.8,244.9,488.1,244.9
	z"/>
<path class="st2" d="M402.9,264.3h-65.2c-2.7,0-4.9-2.2-4.9-4.9c0-2.7,2.2-4.9,4.9-4.9h65.2c2.7,0,4.9,2.2,4.9,4.9
	S405.6,264.3,402.9,264.3z"/>
<path class="st2" d="M488.1,304.9H337.7c-2.7,0-4.9-2.2-4.9-4.9c0-2.7,2.2-4.9,4.9-4.9l0,0H488c2.7,0,4.9,2.2,4.9,4.9
	C493,302.7,490.8,304.9,488.1,304.9L488.1,304.9z"/>
<path class="st2" d="M488.1,324.3H337.7c-2.7,0-4.9-2.2-4.9-4.9s2.2-4.9,4.9-4.9H488c2.7,0,4.9,2.2,4.9,4.9S490.8,324.3,488.1,324.3
	z"/>
<path class="st2" d="M402.9,343.6h-65.2c-2.7,0-4.9-2.2-4.9-4.9s2.2-4.9,4.9-4.9h65.2c2.7,0,4.9,2.2,4.9,4.9
	S405.6,343.6,402.9,343.6z"/>
<polygon class="st3" points="369.6,224.2 206.3,84.5 96.5,84.5 96.5,82.4 207,82.4 370.9,222.7 "/>
<circle class="st4" cx="96.5" cy="83.5" r="16.5"/>
<path class="st4" d="M155.2,138.9H4.9c-2.7,0-4.9-2.2-4.9-4.9s2.2-4.9,4.9-4.9l0,0h150.3c2.7,0,4.9,2.2,4.9,4.9
	S158,138.9,155.2,138.9C155.3,138.9,155.2,138.9,155.2,138.9z"/>
<path class="st4" d="M155.2,158.2H4.9c-2.7,0-4.9-2.2-4.9-4.9s2.2-4.9,4.9-4.9h150.3c2.7,0,4.9,2.2,4.9,4.9S158,158.2,155.2,158.2z"
	/>
<path class="st4" d="M70.1,177.6H4.9c-2.7,0-4.9-2.2-4.9-4.9s2.2-4.9,4.9-4.9h65.2c2.7,0,4.9,2.2,4.9,4.9S72.8,177.6,70.1,177.6z"/>
<polygon class="st3" points="412.9,155.6 576.8,15.4 687.3,15.4 687.3,17.5 577.6,17.5 414.2,157.2 "/>
<circle class="st5" cx="687.3" cy="16.5" r="16.5"/>
<path class="st5" d="M799.3,71.3H648.9c-2.7,0-4.9-2.2-4.9-4.9c0-2.7,2.2-4.9,4.9-4.9l0,0h150.3c2.7,0,4.9,2.2,4.9,4.9
	C804.2,69.1,802,71.3,799.3,71.3L799.3,71.3z"/>
<path class="st5" d="M799.3,90.6H648.9c-2.7,0-4.9-2.2-4.9-4.9s2.2-4.9,4.9-4.9h150.3c2.7,0,4.9,2.2,4.9,4.9S802,90.6,799.3,90.6z"
	/>
<path class="st5" d="M714.1,110h-65.2c-2.7,0-4.9-2.2-4.9-4.9c0-2.7,2.2-4.9,4.9-4.9h65.2c2.7,0,4.9,2.2,4.9,4.9
	S716.8,110,714.1,110z"/>
<path class="st6" d="M681.4,465c-3.2-3.5-3-8.9,0.5-12.1c0.4-0.3,0.8-0.6,1.2-0.9l-7-29.6l14.9,5.4l4.4,27.3
	c2.3,4.2,0.8,9.4-3.4,11.7C688.4,468.7,684.1,467.9,681.4,465L681.4,465z"/>
<path class="st4" d="M645.7,340.9l6,15.3c0,0-2.6,15.3,1.7,18.7s2.6,3.4,2.6,6c0.3,3.7,2.2,7.1,5.1,9.4c3.4,2.6,18.7,54.5,18.7,54.5
	h15.3c-0.5-4-0.5-8,0-11.9c0.9-6-2.6-21.3-4.3-23.9s0-6,0-11.1s-3.4-7.7-3.4-16.2s-10.2-75-9.4-82.6s-8.5-14.5-8.5-14.5H661
	L645.7,340.9z"/>
<polygon class="st6" points="609.6,373.4 595.4,436.6 686.2,431 661.6,368.9 "/>
<path class="st1" d="M720.6,685.9H719c-0.5-0.8-1-1.6-1.6-2.4c-0.9-1.2-1.7-2.4-2.7-3.5c-0.8-1-1.6-2-2.4-3c-0.8-1-1.6-2.1-2.4-3.1
	l0.9-1c0.2,0.2,0.3,0.4,0.5,0.6c2.6,3.4,5.3,6.6,7.7,10.1C719.7,684.3,720.2,685,720.6,685.9z"/>
<path class="st1" d="M699.2,536.5c0.3,0.3,0.5,0.7,0.8,1c1.9,2.5,3.8,5.1,5.5,7.8c3.1,4.7,5.8,9.7,8.2,14.8c0.2,0.4,0.4,0.8,0.6,1.2
	c5.1,11.2,8.4,23.2,9.8,35.4c0,0.1,0,0.2,0,0.3c0.3,2.9,0.5,5.7,0.6,8.6c0.3,5.4-0.2,10.9-1.6,16.1c-0.2,0.7-0.4,1.4-0.7,2
	c-0.6,1.6-1.4,3.2-2.2,4.7c-0.6,1.1-1.4,2.1-2.1,3.1c-0.5,0.6-1,1.2-1.5,1.8c-0.3,0.3-0.6,0.7-0.9,1c-0.3,0.2-0.5,0.5-0.8,0.8
	c-2.7,2.6-5.7,5-8.1,7.9l0.5,1.5c2.3-3,5.4-5.5,8.1-8c1.7-1.6,3.3-3.4,4.7-5.3c0.2-0.3,0.4-0.5,0.5-0.8c0.9-1.4,1.7-2.8,2.4-4.3
	c0.3-0.8,0.7-1.5,0.9-2.3c1.6-5.2,2.4-10.6,2.2-16c0-3.5-0.2-6.9-0.6-10.4c0-0.5-0.1-0.9-0.2-1.3c-1-8.2-2.9-16.3-5.5-24.1
	c-3.4-9.9-8-19.4-13.8-28.2c-1.6-2.5-3.4-5-5.2-7.3c-0.2-0.3-0.5-0.7-0.8-1C699.6,534.9,698.7,535.8,699.2,536.5z"/>
<path class="st1" d="M725,597.7c8.7-1.5,15-9.2,14.9-18c0-0.4-0.3-0.7-0.7-0.7s-0.6,0.3-0.7,0.6c0.1,8.2-5.8,15.3-13.9,16.7
	C723.8,596.5,724.1,597.8,725,597.7L725,597.7z"/>
<path class="st1" d="M717,633.7c-7.2-4.9-12.3-12.4-14.2-20.9c-0.2-0.8-1.5-0.5-1.3,0.3c2,8.9,7.3,16.6,14.9,21.7
	C717.1,635.3,717.7,634.2,717,633.7z"/>
<path class="st1" d="M714.1,560c-3.2,1.3-6.8,0.9-9.6-1.1c-0.7-0.5-1.4,0.7-0.7,1.2c3.1,2.1,7.1,2.6,10.6,1.2
	c0.4-0.1,0.6-0.5,0.5-0.8C714.9,560.2,714.5,559.9,714.1,560L714.1,560z"/>
<polygon class="st6" points="624.7,665.3 614.5,665.3 609.7,625.9 624.7,625.9 "/>
<path class="st3" d="M630.2,684.7H623l-1.3-6.8l-3.3,6.8h-19.2c-2.4,0-4.3-1.9-4.3-4.3c0-1.4,0.7-2.7,1.9-3.6l15.3-10.6v-6.9l16.1,1
	L630.2,684.7z"/>
<polygon class="st6" points="721.1,660.2 711.2,662.4 698.1,625 712.8,621.8 "/>
<path class="st3" d="M730.6,678l-7.1,1.5l-2.7-6.4l-1.8,7.4l-18.8,4.1c-2.3,0.5-4.6-1-5.1-3.3c-0.3-1.4,0.1-2.8,1.1-3.9l12.7-13.6
	l-1.5-6.8l16-2.5L730.6,678z"/>
<path class="st3" d="M593.1,489.5c7.2,39.4,9,56.3,9,56.3s-5.4,6.3-1.8,9.8s0,10.7,0,10.7l8,86.8l6.5-1.1l15.6-2.5l5.6-0.9
	l-3.6-81.4c0,0,3.6-7.2,1.8-9s1.8-12.5,1.8-12.5l4.5-85l27.7,93c0,0-2.7,3.6,0,6.3s8,16.1,8,16.1l16.5,57.7l1.4,4.9l8.6-1.6l9.4-1.8
	l1.7-0.3l3.1-0.6l2-0.4l0.7-0.1l3.2-0.6l-1-4.3l-0.5-2.3l-14-62l-0.3-1.4l-0.3-1.5c0,0,1.8-4.5-0.9-7.2c-1.6-1.7-2.3-4-1.8-6.3
	c0.1-0.1,0.2-0.2,0.2-0.3c0.3-0.4,0.5-0.9,0.6-1.5c0.2-1.1,0-2.7-1.8-4.5c-0.5-0.5-0.9-1.2-1.3-1.8c-2.7-5.2-4.1-16.1-4.1-16.1
	s-2.4-86.4-10.3-99.6c-0.4-0.7-8.8-13.9-9.3-14.2c-8.9-5.4-82.7,2-82.7,2s-4.2,11.3-4.4,12.5C590,431.8,587,456.1,593.1,489.5z"/>
<path class="st6" d="M593.5,464.9c3.2-3.5,3-8.9-0.5-12.1c-0.4-0.3-0.8-0.6-1.2-0.9l7-29.6l-14.9,5.4l-4.4,27.3
	c-2.3,4.2-0.8,9.4,3.4,11.7C586.5,468.5,590.9,467.8,593.5,464.9L593.5,464.9z"/>
<path class="st4" d="M605.4,284.5c0,0,7.4-11,21.8-25.4c7.7-2.6,21-1.1,25.6,0c21.3,28.1,22.6,26.2,28.2,42c1.4,4.1,2.2,8,1.5,11.2
	c-2.6,12.8,1.5,77.3,2.4,80.7s6.8,7.7,0.9,7.7s-96.3-3.4-94.6-6S605.4,284.5,605.4,284.5z"/>
<path class="st4" d="M613.9,284.5h-8.5c0,0-9.4,6.8-8.5,14.5s-9.4,74.1-9.4,82.6s-3.4,11.1-3.4,16.2s1.7,8.5,0,11.1
	s-5.1,17.9-4.3,23.9c0.5,4,0.5,8,0,11.9h15.3c0,0,15.3-52,18.7-54.5c3-2.3,4.8-5.7,5.1-9.4c0-2.6-1.7-2.6,2.6-6s1.7-18.7,1.7-18.7
	l6-15.3L613.9,284.5z"/>
<circle class="st6" cx="631.4" cy="223.5" r="24.7"/>
<path class="st3" d="M614.1,269.7l-2.3-10.1c-1.5-6.9-0.2-14,3.6-19.9c3.6-5.6,3.8-12.7,0.6-18.5c-2.7-4.9-7.3-7.8-12.4-7.8H603
	v-0.6c0-8.8,6.9-15.1,13.3-15.4c0.2-1.8,1.5-3.5,3.8-4.8c5.4-3.1,15.9-3.8,23.8,0.4c0.3-2.7,2.1-5.1,4.6-6.1
	c1.3-0.5,2.7-0.5,4.1-0.2c0.1-2.2,1-4.3,2.6-5.9c2.2-2.1,5.7-2.9,9.6-2.2c5.4,1,10.7,4.4,15,9.7c3.8,4.7,6.4,10.2,8.9,15.5
	c2.5,5.2,5.1,10.7,8.8,15.2c4.1,5,9.2,8.3,14.3,9.2c6,1,12.1-1.4,14.9-6l0.6-0.9l0.5,0.9c3.2,5.8,1.9,13.8-3.1,18.9
	c-4.4,4.6-11.4,7-18.6,6.3c-6.1-0.6-12.2-3.2-18.3-7.7c-6-4.5-9.7-9.5-11-14.8c-0.4-1.6-0.6-3.3-0.8-5c-0.4-3.5-0.8-6.8-3-9.3
	c-1.9-2.2-4.9-3.1-7.6-3.9l-0.5-0.1c-0.2,2-1.3,3.8-2.9,5c-0.5,0.3-1,0.5-1.6,0.6c3.1,12.4,1.8,21.9-3.8,28.3
	c-9.4,10.7-27.6,8.5-28.4,8.4l-0.5-0.1v-0.5c-0.1-1.4-0.2-2.8-0.5-4.1c-2.6,6.3-11.3,22.8-12.5,24.5L614.1,269.7z"/>
<polygon class="st7" points="-182.9,605.6 -166.8,605.6 -172,647.7 -182.9,647.7 "/>
<path class="st3" d="M-183.3,645.6l2.9,0l11.4-4.7l6.1,4.7h0c7.2,0,13.1,5.9,13.1,13.1v0.4l-33.6,0L-183.3,645.6z"/>
<polygon class="st7" points="-225.9,605.6 -209.8,605.6 -215,647.7 -225.9,647.7 "/>
<path class="st3" d="M-226.3,645.6l2.9,0l11.4-4.7l6.1,4.7h0c7.2,0,13.1,5.9,13.1,13.1v0.4l-33.6,0L-226.3,645.6z"/>
<path class="st3" d="M-225.7,378.9c-9.9,10.4-0.1,36.9-0.1,36.9l0.1,118.1c-9.9,26.4-9.9,73.9-6.6,77c3.4,3.1-1.2,3.5-1.2,8.8
	c0,5.2,7.3,12.3,7.3,12.3l15.9,0.1l15.3-85.6l7.4-64.1l3.2,65.4c-10.5,16-6.1,57.8-6.1,61.3s0,2.1,4.4,6.5s1.1,4.4-3.6,9.1
	c-4.7,4.7,3.7,9.4,3.7,9.4l16.5,0.2l12.9-79.8c0,0,9.1-15,6.5-19.2c-2.7-4.2,1.6-5.7,4.9-5.7s-1.4-7-1.4-7l9.1-112.1l-7.7-26.5
	C-145.3,383.9-215.9,368.5-225.7,378.9z"/>
<path class="st7" d="M-231.2,387.4c-0.3,0.5-0.5,1.1-0.6,1.6c-1.5,5.2,1.4,10.6,6.5,12.1c5.2,1.5,10.6-1.4,12.1-6.5
	c1.5-5.2-1.4-10.6-6.5-12.1l-4.7-43.5l-4.7-71.7c0-0.2,0-0.4,0-0.6c-0.7-6.1-6.2-10.6-12.3-9.9l0,0c-6.1,0.7-10.5,6.1-9.9,12.1
	l6.6,68.9L-231.2,387.4z"/>
<path class="st0" d="M-225.3,286.2c-12.3,8.2-29-9.7-32.7-12.6c-3.7-2.9,14.3-36.7,14.3-36.7l24-3C-219.8,234-213,278-225.3,286.2z"
	/>
<circle class="st7" cx="-178.5" cy="176.1" r="25.4"/>
<path class="st3" d="M-194.9,197.6c-10.3-7.5-12.2-19.2-12.1-31.9c-0.1-2.7,0.4-5.5,1.4-8c1.1-2.5,6.1-6.5,8.1-7.6
	c3-1.8,6.4-1.6,8.3-4.5c5.1-7.8,35.9-0.1,32.6,6.2c-1.3,2.5,5.9-3.9,5.8-1.1c-0.1,1.9-0.9,3.8-0.6,5.8c0.4,2.9,3.2,4.9,4.5,7.6
	c1.4,2.7-5.3,12.7-8.4,12.5c-2.2-0.2-4.3-1.2-6.5-1.3c-0.9,0-1.9,0.1-2.8,0.4c-4,1.4-6.2,5.7-4.9,9.8c0.7,1.5,1.4,3,2.2,4.4
	c0.8,1.5,0.9,3.2,0.3,4.8c-1.1,2-3.9,2.4-6.2,2.4c-7.3,0.2-8,2.2-15.3,2.4"/>
<path class="st0" d="M-166.8,220.2l18.1,25.5l-11.9,51.4c0,0,4.4,66.2,11.9,69.2c7.4,3,15.7,33.3,7.5,35.5s-8.3-2.2-11.9,5.8
	c-3.6,7.9-59.4,2.2-72.6-3.8c-13.2-6.1,2.4-37.2,2.4-37.2s-6.7-45.2-11.1-51.8s9.9-17.6,2.2-21s-14.4-36.4-14.5-51.5
	c-0.1-15.1,37.9-30.4,37.9-30.4l16.1-7.7l21,4.4L-166.8,220.2z"/>
<path class="st7" d="M-134.8,396.4c-0.2,0.6-0.3,1.1-0.3,1.7c-0.6,5.3,3.3,10.2,8.6,10.8c5.3,0.6,10.2-3.3,10.8-8.6
	s-3.3-10.2-8.6-10.8l-12.4-41.9l-17.5-69.7c0-0.2-0.1-0.4-0.2-0.6c-1.8-5.9-8-9.3-13.9-7.5l0,0c-5.8,1.7-9.2,7.9-7.6,13.7l18.9,66.5
	L-134.8,396.4z"/>
<path class="st0" d="M-147.3,295.8c-10.6,10.3-30.3-4.3-34.4-6.5c-4.2-2.2,0,0,2.9-5.5s0.8-4.9-4.8-8c-5.6-3.1,9.4-25.1,9.4-25.1
	l23-7.3C-151.2,243.4-136.6,285.6-147.3,295.8z"/>
<polygon class="st7" points="246.3,670.3 260.9,670.3 267.9,613.9 246.3,613.9 "/>
<path class="st3" d="M242.6,665.5l4.1,0l16.1-6.5l8.6,6.5h0c10.1,0,18.4,8.2,18.4,18.4v0.6l-47.2,0L242.6,665.5z"/>
<polygon class="st7" points="114.2,651.3 127.3,657.8 158.7,610.4 139.3,600.8 "/>
<path class="st3" d="M113,645.3l3.7,1.8l17.3,1.3l4.8,9.7l0,0c9.1,4.5,12.8,15.5,8.2,24.6l-0.3,0.5l-42.2-21L113,645.3z"/>
<path class="st3" d="M252.8,414.1l-93,2.4l1.6,45.3c0,0-1.6,12.1,1.6,15.4c3.2,3.2,4.9,3.2,3.2,8.9c-1.6,5.7-5.8,59.7-5.8,59.7
	s-38.2,67.5-36.5,69.1c1.6,1.6,3.2,0,1.6,4c-1.6,4-3.2,2.4-1.6,4c1.4,1.5,2.8,3.2,4,4.9h26.4c0,0,1.5-8.1,1.5-8.9
	c0-0.8,1.6-5.7,1.6-6.5s46.1-49.6,46.1-49.6l9.7-80.9l23.5,79.2c0,0,0,69.5,1.6,71.2c1.6,1.6,1.6,0.8,0.8,4s-4,2.4-1.6,4.9
	s3.2-1.6,2.4,2.4l-0.8,4l31.1,0.3c0,0,3.2-6.8,1.6-9.2c-1.6-2.4-1.5-1.8,0.5-5.7c2-4,2.8-4.8,2-5.6c-0.8-0.8-0.8-5.1-0.8-5.1
	s-11.7-159-11.7-161.5c-0.1-1.2,0.2-2.5,0.7-3.6V454l-3.1-11.7L252.8,414.1z"/>
<path class="st7" d="M335.6,187.5c2.3,6.5-1,13.6-7.4,16.1c-0.7,0.3-1.4,0.5-2.1,0.6l-7.2,43.8l-16.8-15.5l9.4-39.3
	c-0.7-6.9,4.2-13.1,11.1-13.9C328.3,178.6,333.7,182,335.6,187.5L335.6,187.5z"/>
<path class="st8" d="M211.6,286.8c0,0,13-17.2,60.3-16.8l26.9-9.8L305,204l21.5,5.1l-3.1,69.5l-46,26.6L217,317.6L211.6,286.8z"/>
<circle id="a9729a65-ee7a-4a83-8b52-5849077a5ed0" class="st7" cx="204.7" cy="222.8" r="28.1"/>
<path class="st8" d="M157.2,435.7c0,0-0.1,0-0.1,0c-0.5-0.1-0.9-0.3,0.9-16.4l2-12.8l-2-11.3l-3.3-3.3l5.3-5.3l4.5-12.7l-7.7-11.5
	l-8.9-46.9c-3.1-16.6,5.3-33.3,20.5-40.6l10.3-3l3.7-6.9c2.1-3.9,6.2-6.4,10.7-6.4l18.8-0.1c3.8,0,7.5,1.7,9.8,4.8l6.6,8.5l27.2,9.2
	l-4.5,97.2l0,0c2.9,2.4,3.2,6.7,0.8,9.5c-0.1,0.1-0.2,0.3-0.4,0.4c-0.3,0.3-0.5,0.5-0.6,0.7c-0.5,0.7,0.4,5.5,1.5,9.7l1.4,6.3l0,0
	c-1.7,1.2-2.2,3.7-0.9,5.4c0.1,0.1,0.1,0.2,0.2,0.3l1.7,2.1l0,0c0.7,5.4-3,10.3-8.4,11C221.5,427,157.3,435.7,157.2,435.7z"/>
<path class="st3" d="M197.5,249.5c-0.1-0.3-0.2-0.5-0.4-0.8c0,0,0.1,0,0.1,0L197.5,249.5z"/>
<path class="st3" d="M175.8,196c1.3-1.3,3.1-2,4.9-2.1c1.8,0.1,3.7,1.7,3.3,3.5c6.9-12.2,21.5-17.7,34.7-13c4.5,1.6,8.9,4.8,10,9.4
	c0.1,1.2,0.5,2.4,1.1,3.5c1.1,1.2,2.7,1.6,4.2,1.1l0,0c0.7-0.2,1.4,0.1,1.7,0.8c0.1,0.3,0.1,0.7-0.1,1l-1.3,2.4
	c1.6,0.4,3.3,0.3,4.9-0.1c0.7-0.2,1.4,0.2,1.6,0.9c0.1,0.4,0,0.8-0.2,1.1c-4.3,5.9-11.1,9.4-18.4,9.5c-5.1,0-10.3-1.8-15.2-0.6
	c-7.1,1.7-11.5,8.8-9.8,15.9c0.2,0.9,0.5,1.8,0.9,2.7c-1.5-1.7-4.5-1.3-6,0.4c-1.5,1.8-2.1,4.1-1.8,6.3c0.4,3.4,1.4,6.8,3,9.9
	c-16.3-0.5-29.1-14.1-28.6-30.4C165,209.5,169.1,201.4,175.8,196L175.8,196z"/>
<path class="st7" d="M168.1,476c-5.6-4-6.9-11.8-3-17.4c0.4-0.6,0.9-1.2,1.4-1.7l-18.9-40.2l22.6,3.3l14.5,37.7
	c4.5,5.3,3.9,13.2-1.3,17.7C179.2,479.1,172.8,479.4,168.1,476L168.1,476z"/>
<path class="st8" d="M162.4,454.1l-30.1-67.8l-0.3-53.5l9.5-28.9c5.3-16.2,22.8-25,39-19.7c0.3,0.1,0.5,0.2,0.8,0.3l0.2,0.1l0.1,0.2
	c0.4,0.8,8.3,20.5-15.3,61.1l-4.8,27.8l16.7,63.6L162.4,454.1z"/>
</svg>
