<?xml version="1.0" encoding="utf-8"?>
<!-- Generator: Adobe Illustrator 28.3.0, SVG Export Plug-In . SVG Version: 6.00 Build 0)  -->
<svg version="1.1" id="Layer_1" xmlns="http://www.w3.org/2000/svg" xmlns:xlink="http://www.w3.org/1999/xlink" x="0px" y="0px"
	 viewBox="0 0 931 633.2" style="enable-background:new 0 0 931 633.2;" xml:space="preserve">
<style type="text/css">
	.st0{fill:#FFB6B6;}
	.st1{fill:#FF0069;}
	.st2{fill:#2F2E41;}
	.st3{fill:#FFFFFF;}
	.st4{fill:#B3B3B3;}
	.st5{fill:#C7C7C7;}
	.st6{fill:#F2F2F2;}
	.st7{fill:#3F3D56;}
	.st8{fill:#BDBDBD;}
</style>
<g>
	<g>
		<path id="uuid-25324785-d0f2-4f1c-ad19-f4bb5410ff47-969" class="st0" d="M235.9,345.4l19.9,14.4l-7.1,9.3l-19.4-15.5
			c-2.3-0.5-4.3-1.6-6.2-3.1c-4.5-3.7-6.2-9.2-3.9-12c2.3-2.9,7.9-2.2,12.4,1.6C233.5,341.3,235,343.2,235.9,345.4z"/>
		<path class="st1" d="M343.5,375c-0.2,8.1-7.6,13.7-11.6,16.8c-17.7,13.2-39.7,9.5-40.7,9.3c-10.4-1.9-17.2-7-30.9-16.9
			c-13.4-9.8-22.8-23-22.8-23L244,348c0,0,10.1,5.4,24.8,14.6c7.6,4.7,38,6.8,40.1,7.3c6.1,1.6-6.8,4,3.6-0.8
			c5.4-2.6,5.9-5.1,11.8-6.5c2.5-0.6,9.8-2.3,14.9,2C343.5,368.3,343.5,374.4,343.5,375L343.5,375z"/>
		<circle class="st0" cx="323.2" cy="318.8" r="22.8"/>
		<g>
			<polygon class="st0" points="145,486 162.3,484.1 179.9,461 167.6,448.3 144.2,472.3 			"/>
			<path class="st2" d="M278.6,427.2c12.4-1.1,37.7,38.5,27,51.7c-6.8,8.4-26.1,3.1-28.7,2.3c-6.2-1.7-6.7-3.3-37.4-24.5
				c-7.9-5.4-10.4-7.1-14.1-10.9c-7.9-8.2-9.5-14.3-13.2-14.1c-4,0.3-2.9,7.5-10.7,16.1c-6.5,7.5-10.4,5.6-19.7,15.4
				c-3.1,3.3-4,5-6.4,5.3c-5.7,0.9-14.4-6.7-15.2-14.7c-0.6-7.3,5.7-9,22.4-31.7c2.8-3.9,5.9-7.5,8.8-11.3
				c5.1-7.1,6.8-10.1,10.9-12.3c2.8-1.6,6.1-2,10.9-1.9c21.1,0.9,44.7,15.2,50.8,24.5c0.5,0.8,2,3.1,4.8,4.7
				C272.9,428.3,277.2,427.3,278.6,427.2L278.6,427.2z"/>
			<path class="st2" d="M151.3,477.8c1.1,0.5,4.8,2.2,9.3,1.1c5.1-1.2,6.4-4.8,8.4-4c1.4,0.5,1.2,2.3,2.8,8.8c1.6,6.7,2,6.5,1.7,7.5
				c-1.6,4.8-13,1.6-33.7,5.1c-6.1,1.1-11.8,2.5-19.6,0.8c-3.1-0.8-9-2.2-10.2-6.2c-0.6-2,0-4.5,1.4-6.2c3.7-4.5,10.1-0.8,16.8-5.6
				c2.2-1.6,1.7-2.2,5.3-4.8c4.3-3.4,7.9-4.7,8.5-5c4-1.4,7.8-1.6,7.8-1.2s-1.6,0.5-2.5,1.9c-0.9,1.2-1.2,2.9-0.8,4.3
				C147.6,476.1,149.6,477,151.3,477.8L151.3,477.8z"/>
		</g>
		<g>
			<polygon class="st0" points="194.3,562.1 207.5,550.7 209.1,521.7 192,518 185.9,551.2 			"/>
			<path class="st2" d="M271.8,438.3c9.6-7.8,52.8,10.7,51.4,27.6c-0.9,10.7-19.9,17.2-22.5,18.2c-6.1,2-7.3,1.1-44.7,0.8
				c-9.6-0.2-12.7,0-17.9-1.1c-11.2-2.3-16-6.5-18.8-4.2c-3.1,2.5,1.7,7.9,0.3,19.4c-1.2,9.9-5.4,10.6-7.6,23.8
				c-0.8,4.5-0.6,6.4-2.3,8.1c-4.3,4-15.7,2.5-20.8-3.7c-4.7-5.6-0.3-10.7,0.8-38.7c0.2-4.8,0.8-9.6,0.9-14.4
				c0.3-8.7-0.2-12.1,2-16.1c1.6-2.8,3.9-5.1,7.9-7.6c18-11.2,45.5-12.4,55.7-8.2c0.8,0.3,3.4,1.4,6.5,1.1
				C267.6,442.4,270.7,439.3,271.8,438.3L271.8,438.3z"/>
			<path class="st2" d="M194.9,551.7c1.2-0.2,5.3-0.9,8.2-4.3c3.6-3.9,2.6-7.6,4.7-8.1c1.4-0.3,2.3,1.2,7.3,5.7
				c5,4.7,5.4,4.2,5.6,5.1c1.4,4.8-9.9,8.7-25,23.1c-4.5,4.2-8.4,8.7-15.7,11.5c-3.1,1.2-8.7,3.3-12,0.6c-1.6-1.4-2.5-3.7-2.3-6.1
				c0.5-5.9,7.9-6.2,10.7-14.1c0.9-2.5,0.3-2.8,1.6-7c1.7-5.3,3.9-8.2,4.3-9c2.5-3.4,5.4-5.6,5.7-5.4c0.2,0.2-0.9,1.2-1.1,2.9
				c0,1.6,0.6,3.1,1.9,4C190.9,552.5,193.1,552,194.9,551.7L194.9,551.7z"/>
		</g>
		<path class="st2" d="M320.1,323.2c0.2,0.6,1.1,3.9,2.5,3.9c1.6,0,1.7-4.3,4.2-5.1c2.2-0.6,5.7,1.7,7,4.8c1.9,5.1-3.7,9.5-1.6,12.7
			c1.2,1.9,4.7,2.5,6.7,1.6c2.6-1.4,1.7-4.8,4.5-10.6c2.5-5.3,4.3-4.5,5.4-8.2s0-7.5-2.5-15.2c-1.7-5.4-2.6-8.2-4.2-9.8
			c-3.3-2.9-5.4-0.8-12.4-4.2c-3.4-1.7-5.4-3.4-7.3-2.5c-1.1,0.5-0.9,1.4-2.8,3.7c-0.3,0.3-2.9-2.3-3.9-2.8c-0.9-0.5-4.7,0-5.4-0.3
			c-1.2-0.5-4.3,1.7-5.1,1.2c-0.9-0.5-4.3,2.3-5.1,6.1c-0.9,4.7,2.2,9.9,4.8,10.1c1.9,0,2.5-2.6,5.4-3.1c1.4-0.2,3.6,0.2,4.5,1.6
			c0,0,0.9,1.2-0.3,8.2l0,0c4,1.6,4.5,2.2,4.5,2.2C320.2,318.8,319.1,320,320.1,323.2L320.1,323.2z"/>
		<path class="st1" d="M337.3,345c2,2.3,0,5.3,2.5,11.2c1.9,4.3,4.7,6.8,5.7,7.9c7.9,7.9,6.7,33.2,0,54.6
			c-5.7,18.8-10.1,16.6-17.7,40.4c-1.7,5.3-2.8,9.6-6.7,14.3c-6.5,7.8-19.9,15.7-31,10.9c-9.9-4.2-14.9-17.1-14.6-26.4
			c0.2-7.5,3.7-12,0.6-18.2c-1.9-3.7-4.5-4.8-5.4-9.5c-0.3-1.1-1.2-5.9,1.2-9.8c3.3-5.1,9.3-3.3,15.8-8.8c2.8-2.5,4.2-5,5.7-7.9
			c7.5-14,0.6-22,7.3-30.4c4.7-5.9,11-5.4,12.1-11.2c0.8-3.9-2-5.4-1.2-8.8C313.7,345.2,332.7,339.8,337.3,345L337.3,345z"/>
		<g>
			<path id="uuid-91308677-eda7-42a2-9f2e-a07e84038198-970" class="st0" d="M273.7,462.7l15.5-19.3l7.8,5.9l-15.1,19.7
				c-0.5,2.3-1.6,4.5-2.9,6.2c-3.6,4.7-9,6.5-12,4.2c-2.9-2.3-2.3-7.9,1.2-12.6C269.6,465.4,271.5,463.8,273.7,462.7z"/>
			<path class="st1" d="M323.7,365.1c7.9,1.7,11.8,10.1,14,14.7c9.3,20,14.3,6.4,14,7.3c-4,9.8-23.4,50-36,61.3
				c-12.3,11-30.4,16.6-30.4,16.6L273.8,455c0,0,10.6-6.7,22.5-19.3c6.1-6.5,9.2-12.4,10.1-14.4c2.8-5.7,7.8-16,5.1-27
				c-1.4-5.9-3.7-6.8-4-12.9c-0.2-2.6-0.3-10.1,5-14.1C317.1,363.7,323,364.9,323.7,365.1L323.7,365.1z"/>
		</g>
	</g>
</g>
<g>
	<path class="st3" d="M747.5,116.2H373.7c-10.3,0-18.6,8.3-18.6,18.6v426.9c0,10.3,8.3,18.6,18.6,18.6h373.8
		c10.3,0,18.6-8.3,18.6-18.6V134.8C766.1,124.5,757.8,116.2,747.5,116.2z"/>
	<path class="st4" d="M752.8,585.7H368.2c-10.3,0-18.6-8.3-18.6-18.6V129.4c0-10.3,8.3-18.6,18.6-18.6h384.6
		c10.3,0,18.6,8.3,18.6,18.6v437.7C771.4,577.4,763,585.7,752.8,585.7z M376.8,577.2h367.6c10.3,0,18.6-8.3,18.6-18.6V137.9
		c0-10.3-8.3-18.6-18.6-18.6H376.8c-10.3,0-18.6,8.3-18.6,18.6v420.7C358.2,568.9,366.5,577.2,376.8,577.2z"/>
</g>
<path class="st5" d="M401,331.1c0-1.2,1-2.3,2.3-2.3h314.6l0,0c1.2,0,2.3,1,2.3,2.3s-1,2.3-2.3,2.3H403.2
	C402,333.3,401.1,332.4,401,331.1z"/>
<path class="st5" d="M401,292.8c0-1.2,1-2.3,2.3-2.3h314.6l0,0c1.2,0,2.3,1,2.3,2.3c0,1.2-1,2.3-2.3,2.3H403.2
	C402,295,401.1,294.1,401,292.8z"/>
<path class="st5" d="M401,254.4c0-1.2,1-2.3,2.3-2.3h314.6l0,0c1.2,0,2.3,1,2.3,2.3s-1,2.3-2.3,2.3H403.2
	C402,256.7,401.1,255.8,401,254.4z"/>
<path class="st5" d="M401,216.1c0-1.2,1-2.3,2.3-2.3h314.6l0,0c1.2,0,2.3,1,2.3,2.3s-1,2.3-2.3,2.3H403.2
	C402,218.4,401.1,217.5,401,216.1z"/>
<path class="st5" d="M401,365.8c0-1.2,1-2.3,2.3-2.3h314.6l0,0c1.2,0,2.3,1,2.3,2.3c0,1.2-1,2.3-2.3,2.3H403.2
	C402,368,401.1,367,401,365.8z"/>
<path class="st5" d="M401,537.7c0-1.2,1-2.3,2.3-2.3h314.6l0,0c1.2,0,2.3,1,2.3,2.3c0,1.2-1,2.3-2.3,2.3H403.2
	C402,539.9,401.1,538.9,401,537.7z"/>
<path class="st5" d="M437.2,177.8c-2.9-0.2-5.2-2.8-4.9-5.8c0.3-2.8,2.8-5,5.7-4.9h245.6c0.1,0,0.3,0,0.5,0c2.9,0.3,5.1,2.9,4.8,5.9
	c-0.4,2.9-2.9,5-5.7,4.9H437.5C437.4,177.9,437.2,177.9,437.2,177.8z"/>
<g>
	<rect x="434.1" y="385.9" class="st6" width="253" height="129.6"/>
	<rect x="442.6" y="392.5" class="st3" width="236.1" height="116.8"/>
	<path class="st7" d="M649.4,491.4H477.3c-0.3,0-0.5-0.2-0.5-0.5v-82.5c0-0.3,0.2-0.5,0.5-0.5s0.5,0.2,0.5,0.5l0,0v82h171.6
		c0.3,0,0.5,0.2,0.5,0.5C650,491.2,649.7,491.4,649.4,491.4z"/>
	<path class="st1" d="M514,485.5h-15.6c-0.9,0-1.6-0.7-1.6-1.6v-21.5c0-0.9,0.7-1.6,1.6-1.6H514c0.9,0,1.6,0.7,1.6,1.6v21.5
		C515.7,484.7,515,485.5,514,485.5z"/>
	<path class="st1" d="M542.6,485.5H527c-0.9,0-1.6-0.7-1.6-1.6v-42c0-0.9,0.7-1.6,1.6-1.6h15.6c0.9,0,1.6,0.7,1.6,1.6v42
		C544.2,484.7,543.5,485.5,542.6,485.5z"/>
	<path class="st1" d="M571.2,485.5h-15.6c-0.9,0-1.6-0.7-1.6-1.6v-21.5c0-0.9,0.7-1.6,1.6-1.6h15.6c0.9,0,1.6,0.7,1.6,1.6v21.5
		C572.8,484.7,572,485.5,571.2,485.5z"/>
	<path class="st1" d="M599.7,485.5H584c-0.8,0-1.6-0.6-1.6-1.6v-50.2c0-0.8,0.7-1.6,1.6-1.6h15.6c0.8,0,1.6,0.6,1.6,1.6V484
		C601.3,484.8,600.6,485.5,599.7,485.5z"/>
	<path class="st1" d="M628.3,485.5h-15.6c-0.9,0-1.6-0.7-1.6-1.6v-64.7c0-0.9,0.7-1.6,1.6-1.6h15.6c0.9,0,1.6,0.7,1.6,1.6v64.7
		C629.8,484.7,629.2,485.5,628.3,485.5z"/>
	<circle class="st7" cx="506.2" cy="451" r="3.2"/>
	<circle class="st7" cx="534.8" cy="430" r="3.2"/>
	<circle class="st7" cx="563.3" cy="451" r="3.2"/>
	<circle class="st7" cx="591.9" cy="419.7" r="3.2"/>
	<circle class="st7" cx="620.4" cy="407.9" r="3.2"/>
	<polygon class="st7" points="563.4,451.7 534.8,430.3 506.6,451.4 505.9,450.6 534.8,428.9 563.2,450.3 591.6,419.3 591.7,419.2 
		620.2,407.7 620.6,408.7 592.2,420.2 	"/>
</g>
<path class="st8" d="M175.7,340.5l15.6-53c0.7-2.3,3-3.5,5.2-2.9l40,11.8c2.3,0.7,3.5,3,2.9,5.2l-15.6,53c-0.7,2.3-3,3.5-5.2,2.9
	l-40.1-11.8C176.3,345,175,342.7,175.7,340.5z"/>
<path class="st3" d="M183.5,325.3l10.1-34.1c0.6-2.1,2.8-3.3,4.9-2.7l34.4,10.2c2.1,0.6,3.3,2.8,2.7,4.9l-13.9,47.2
	c-0.6,2.1-2.8,3.3-4.9,2.7l-21.3-6.3C186.1,344.5,180.8,334.7,183.5,325.3z"/>
<path class="st5" d="M221.2,324.1l-26.9-7.8c-0.9-0.3-1.4-1.2-1.1-2.1c0.3-0.9,1.2-1.4,2.1-1.1l26.9,7.8c0.9,0.3,1.4,1.2,1.1,2.1
	S222.1,324.4,221.2,324.1L221.2,324.1z"/>
<path class="st5" d="M202.9,309.2l-5.9-1.7c-0.9-0.3-1.4-1.2-1.1-2.1s1.2-1.4,2.1-1.1l0,0l5.9,1.7c0.9,0.3,1.4,1.2,1.1,2.1
	C204.7,308.9,203.8,309.4,202.9,309.2L202.9,309.2z"/>
<path class="st5" d="M217.1,338.3l-26.9-7.8c-0.9-0.3-1.4-1.2-1.1-2.1s1.2-1.4,2.1-1.1l26.9,7.8c0.9,0.3,1.4,1.2,1.1,2.1
	S218,338.5,217.1,338.3L217.1,338.3z"/>
<path class="st5" d="M219.2,331.2l-26.9-7.8c-0.9-0.3-1.4-1.2-1.1-2.1s1.2-1.4,2.1-1.1l26.9,7.8c0.9,0.3,1.4,1.2,1.1,2.1
	C221,330.9,220.1,331.5,219.2,331.2L219.2,331.2z"/>
</svg>
