<?xml version="1.0" encoding="UTF-8"?>
<svg id="Layer_1" data-name="Layer 1" xmlns="http://www.w3.org/2000/svg" viewBox="0 0 818.1 587.9">
  <defs>
    <style>
      .cls-1 {
        fill: #ccc;
      }

      .cls-1, .cls-2, .cls-3, .cls-4, .cls-5, .cls-6, .cls-7, .cls-8, .cls-9, .cls-10, .cls-11 {
        stroke-width: 0px;
      }

      .cls-2 {
        fill: #ff0069;
      }

      .cls-3 {
        fill: #3f3d56;
      }

      .cls-4 {
        fill: #ffb8b8;
      }

      .cls-12 {
        stroke: #3f3d56;
        stroke-miterlimit: 10;
        stroke-width: 3px;
      }

      .cls-12, .cls-6 {
        fill: none;
      }

      .cls-5 {
        fill: #2f2e41;
      }

      .cls-7 {
        fill: #000;
        isolation: isolate;
        opacity: .28;
      }

      .cls-8 {
        fill: #e6e6e6;
      }

      .cls-9 {
        fill: #575a89;
      }

      .cls-10 {
        fill: #6c63ff;
      }

      .cls-11 {
        fill: #fff;
      }
    </style>
  </defs>
  <g id="Layer_1-2" data-name="Layer 1">
    <polygon class="cls-4" points="743.2 574.3 729.1 574.3 722.4 520 743.2 520 743.2 574.3"/>
    <path class="cls-8" d="M280.3,504.4c29.9-29.9,29.9-78.5,0-108.4-14.5-14.5-34-22.6-54.3-22.6-42.3,0-76.7,34.3-76.7,76.7,0,24,11.2,46.5,30.3,61,30.5,23.2,73.5,20.3,100.6-6.8l-13.6-13.6c-20.3,20.3-52.5,22.5-75.4,5.1h0c-14.3-10.8-22.7-27.7-22.7-45.7,0-31.8,25.7-57.5,57.5-57.5s57.5,25.7,57.5,57.5c0,15.3-6.1,29.9-16.8,40.7l13.6,13.6Z"/>
    <path class="cls-5" d="M746.8,587.9h-45.4v-.6c0-9.8,7.9-17.7,17.7-17.7h27.7v18.3Z"/>
    <polygon class="cls-4" points="805.3 539.7 796.2 550.4 750.5 520.2 764 504.4 805.3 539.7"/>
    <path class="cls-5" d="M818.1,545.8l-29.5,34.5-.4-.4c-7.4-6.3-8.3-17.5-2-24.9h0l18-21.1,13.9,11.9Z"/>
    <polygon class="cls-5" points="643.2 307.2 638.9 347.6 816 345.1 738.8 219.2 675.7 216.9 643.2 307.2"/>
    <polygon class="cls-7" points="643.2 307.2 638.9 347.6 816 345.1 738.8 219.2 675.7 216.9 643.2 307.2"/>
    <path class="cls-5" d="M678.1,314.2l-6.3,37v33.1l50.4,16.5s-5.9,128.4,2,136.6l-.2,19.7,22,1,.2-13.9,9.3-103.9,5.5-76.3-8.9-57.8-74,8Z"/>
    <path class="cls-5" d="M717.1,346l-45.3,38.2s-2.7,68.9,4.1,77c5.8,6.9,81,66.8,81,66.8,0,0,13.4,12.3,20.9,12.5s16.2-15.5,16.2-15.5l-17.4-13.2s-45-42-58.3-58.7c-5.4-6.7-5.4-7.4-5.4-7.4l1.8-28,18.5-52-16.1-19.7Z"/>
    <polygon class="cls-5" points="669 163 649.5 161.2 631.8 164.1 594.2 164.1 591 191.3 625.3 199 633.6 194.9 668.4 208.2 669 163"/>
    <path class="cls-1" d="M692.4,162.9s41.5-3.9,50.9,3.5,29.6,154.3,29.6,154.3l-80.5,4.5-14.4-9.9,4.1-73.3,10.3-79.1Z"/>
    <polygon class="cls-5" points="705 162 659.3 163 616.6 355.7 650.3 363.1 705 162"/>
    <polygon class="cls-5" points="737.5 160.4 773.6 171.6 771.5 250.8 816 345.5 763.7 351 722.4 248.8 737.5 160.4"/>
    <path class="cls-4" d="M797,355.1c4.8-4.2,5.2-11.5,1-16.2-.4-.5-.9-1-1.5-1.4l7.2-25.3-14.3-8.2-9.7,35.9c-3.6,5.3-2.3,12.5,2.9,16.1,4.5,3,10.4,2.7,14.4-.9h0Z"/>
    <path class="cls-5" d="M752.7,173.8l21.3-1.8s19.1,20,23.5,35.5,9.1,64,9.1,64l-2,71-24.9-16.9-1.7-61-25.3-90.8Z"/>
    <circle class="cls-4" cx="721.1" cy="123.7" r="30.2"/>
    <path class="cls-5" d="M717.7,111.1c-4-.9-8.1.1-12.1.8s-8.4.9-11.8-1.4c-2.5-1.7-4.1-4.4-5.5-7-.6-.9-1-2-1.2-3.1-.2-1.9,1.1-3.7,2.4-5.2,6.1-6.7,15-10.4,24.1-11.6,7.4-1.1,15-.2,22,2.7,6.8,3,12.7,8.5,15.4,15.5,1.2,3.6,2,7.3,2.3,11,.4,2.8.5,5.6.2,8.4-.4,2.1-.9,4.1-1.6,6.1l-4.5,13.4c-.3,1.3-.9,2.5-1.8,3.5-.9,1-2.3,1.3-3.5.8.4-1.5.4-3,.2-4.5-.3-1.5-1.5-2.7-3-3-1.6-.2-3,1.1-4.6,1.6-3,.9-6.1-.8-7-3.8,0-.1-.1-.3-.1-.4-.2-1.5.2-3.2-.4-4.6-.7-1.7-2.5-2.6-3.9-3.8-2.5-2.3-3.5-5.9-2.4-9.2.4-1.1,1.4-1.6,1.2-2.9-.5-1.8-3-3-4.4-3.3Z"/>
    <path class="cls-11" d="M382.2,238.7H.6V0h381.6v238.7Z"/>
    <path class="cls-3" d="M381.6,238.8H0V.1h381.6v238.7ZM1.7,237.1h378.1V1.8H1.7v235.3Z"/>
    <path class="cls-11" d="M335,569.5H117.2v-238.8h217.8v238.8Z"/>
    <path class="cls-3" d="M335,569.5H117.2v-238.8h217.8v238.8ZM118.9,567.7h214.3v-235.2H118.9v235.2Z"/>
    <rect class="cls-3" x="260.1" y="546.9" width="45.3" height="1.8"/>
    <rect class="cls-3" x="260.1" y="552.4" width="45.3" height="1.8"/>
    <rect class="cls-3" x="260.1" y="557.9" width="45.3" height="1.8"/>
    <path class="cls-8" d="M226.1,373.4v19.2c31.8,0,57.5,25.7,57.5,57.5,0,15.3-6.1,29.9-16.8,40.7l13.6,13.6c29.9-29.9,29.9-78.5,0-108.4-14.5-14.5-34-22.6-54.3-22.6Z"/>
    <path class="cls-2" d="M280.3,504.3l-13.6-13.6c-20.3,20.3-52.6,22.5-75.5,5.1l-11.5,15.3c30.5,23.2,73.5,20.3,100.6-6.8Z"/>
    <path class="cls-10" d="M168.6,450.1c0-31.8,25.7-57.5,57.5-57.5h0v-19.2c-42.3,0-76.7,34.3-76.7,76.7,0,24,11.2,46.5,30.3,61l11.6-15.3c-14.3-10.8-22.7-27.7-22.7-45.7Z"/>
    <path class="cls-11" d="M657.4,409.4h-217.8v-226.8h217.8v226.8Z"/>
    <path class="cls-3" d="M657.4,411.1h-217.8v-228.5h217.8v228.5ZM441.3,409.4h214.3v-225.1h-214.3v225.1Z"/>
    <rect class="cls-9" x="472.9" y="325.6" width="39.2" height="62.7"/>
    <rect class="cls-8" x="529.5" y="282.9" width="39.2" height="105.4"/>
    <rect class="cls-10" x="586.2" y="233.2" width="39.2" height="155.1"/>
    <polygon class="cls-3" points="638.5 390 462.5 390 462.5 207.9 464.2 207.9 464.2 388.3 638.5 388.3 638.5 390"/>
    <circle class="cls-4" cx="594" cy="177" r="12"/>
    <path class="cls-3" d="M328.6,188.9H53c-.5,0-.9-.4-.9-.9V55.9c0-.5.4-.9.9-.9s.9.4.9.9v131.2h274.8c.5,0,.9.4.9.9s-.5.9-1,.9h0Z"/>
    <path class="cls-2" d="M111.9,179.4h-25.1c-1.4,0-2.6-1.1-2.6-2.6v-34.6c0-1.4,1.1-2.6,2.6-2.6h25.1c1.4,0,2.6,1.1,2.6,2.6v34.6c-.1,1.5-1.2,2.6-2.6,2.6Z"/>
    <path class="cls-2" d="M157.6,179.4h-25.1c-1.4,0-2.6-1.1-2.6-2.6v-67.3c0-1.4,1.1-2.6,2.6-2.6h25.1c1.4,0,2.6,1.1,2.6,2.6v67.3c0,1.5-1.2,2.6-2.6,2.6Z"/>
    <path class="cls-2" d="M203.3,179.4h-25.1c-1.4,0-2.6-1.1-2.6-2.6v-34.6c0-1.4,1.1-2.6,2.6-2.6h25.1c1.4,0,2.6,1.1,2.6,2.6v34.6c0,1.5-1.2,2.6-2.6,2.6Z"/>
    <path class="cls-2" d="M249,179.4h-25c-1.4,0-2.5-1.1-2.6-2.4v-80.5c0-1.4,1.2-2.5,2.6-2.4h25c1.4,0,2.5,1.1,2.6,2.4v80.5c0,1.3-1.2,2.4-2.6,2.4Z"/>
    <path class="cls-2" d="M294.7,179.4h-25.1c-1.4,0-2.6-1.1-2.6-2.6v-103.5c0-1.4,1.1-2.6,2.6-2.6h25.1c1.4,0,2.6,1.1,2.6,2.6v103.6c0,1.4-1.1,2.5-2.6,2.5Z"/>
    <circle class="cls-3" cx="99.4" cy="124.2" r="5.2"/>
    <circle class="cls-3" cx="145.1" cy="90.6" r="5.2"/>
    <circle class="cls-3" cx="190.8" cy="124.2" r="5.2"/>
    <circle class="cls-3" cx="236.5" cy="74.2" r="5.2"/>
    <circle class="cls-3" cx="282.2" cy="55.2" r="5.2"/>
    <g>
      <line class="cls-6" x1="99.4" y1="124.2" x2="145.1" y2="90.6"/>
      <rect class="cls-3" x="93.89" y="105.9" width="56.7" height="3" transform="translate(-39.86 93.29) rotate(-36.33)"/>
    </g>
    <g>
      <line class="cls-6" x1="236.5" y1="74.2" x2="281.4" y2="55.2"/>
      <rect class="cls-3" x="234.58" y="63.2" width="48.7" height="3" transform="translate(-5.06 103.97) rotate(-22.49)"/>
    </g>
    <line class="cls-12" x1="190.7" y1="125" x2="234" y2="76.4"/>
    <line class="cls-12" x1="147.6" y1="92.8" x2="187.1" y2="122.7"/>
  </g>
</svg>